<svg width="512" height="513" viewBox="0 0 512 513" fill="none" xmlns="http://www.w3.org/2000/svg">
<g clip-path="url(#clip0_1118_5658)">
<path d="M256 512.988C397.385 512.988 512 398.373 512 256.988C512 115.603 397.385 0.988281 256 0.988281C114.615 0.988281 0 115.603 0 256.988C0 398.373 114.615 512.988 256 512.988Z" fill="#F0F0F0"/>
<path d="M480.872 134.553C447.792 73.924 390.909 28.155 322.782 9.79297L311.652 134.553H480.872Z" fill="#0052B4"/>
<path d="M31.127 134.553H200.347L189.217 9.79297C121.09 28.155 64.208 73.925 31.127 134.553Z" fill="#0052B4"/>
<path d="M311.652 256.988V379.423H480.872C500.717 343.052 512 301.338 512 256.988H311.652Z" fill="#6DA544"/>
<path d="M200.348 256.988H0C0 301.338 11.283 343.052 31.127 379.423H200.347V256.988H200.348Z" fill="#6DA544"/>
<path d="M31.127 379.424C64.208 440.053 121.09 485.822 189.217 504.184L200.347 395.075L31.127 379.424Z" fill="#FFDA44"/>
<path d="M322.782 504.184C390.909 485.822 447.792 440.053 480.872 379.424L311.652 395.073L322.782 504.184Z" fill="#FFDA44"/>
<path d="M311.652 395.073L480.873 379.424H311.652V395.073Z" fill="#FFDA44"/>
<path d="M200.348 379.424H31.127L200.348 395.073V379.424Z" fill="#FFDA44"/>
<path d="M256 0.988281C232.893 0.988281 210.511 4.06828 189.217 9.80728V504.17C210.511 509.908 232.893 512.988 256 512.988C279.107 512.988 301.489 509.908 322.783 504.169V9.80728C301.489 4.06828 279.107 0.988281 256 0.988281V0.988281Z" fill="#D80027"/>
<path d="M137.697 56.6406L144.603 77.8976H166.956L148.874 91.0356L155.781 112.293L137.697 99.1556L119.614 112.293L126.523 91.0356L108.441 77.8976H130.792L137.697 56.6406Z" fill="#FFDA44"/>
</g>
<defs>
<clipPath id="clip0_1118_5658">
<rect width="512" height="512" fill="white" transform="translate(0 0.988281)"/>
</clipPath>
</defs>
</svg>
