<svg width="512" height="512" viewBox="0 0 512 512" fill="none" xmlns="http://www.w3.org/2000/svg">
<g clip-path="url(#clip0_1118_6096)">
<path d="M256 512C397.385 512 512 397.385 512 256C512 114.615 397.385 0 256 0C114.615 0 0 114.615 0 256C0 397.385 114.615 512 256 512Z" fill="#F0F0F0"/>
<path d="M256.001 0C210.74 0 168.232 11.762 131.34 32.372V479.628C168.233 500.238 210.74 512 256.001 512C397.385 512 512.001 397.384 512.001 256C512.001 114.616 397.385 0 256.001 0Z" fill="#6DA544"/>
<path d="M132.092 31.9512C115.987 40.8762 100.949 51.4842 87.21 63.5442C88.599 62.3262 90.002 61.1222 91.416 59.9342L287.481 256L91.415 452.066C90 450.878 88.598 449.674 87.209 448.456C100.948 460.516 115.987 471.123 132.091 480.049L512 256L132.092 31.9512Z" fill="#F0F0F0"/>
<path d="M110.471 45.3828C102.664 50.7888 95.1655 56.6058 88.0205 62.8228L256.001 256.001L88.0195 449.179C95.1645 455.396 102.663 461.214 110.47 466.619L468.179 256.001L110.471 45.3828Z" fill="#FFDA44"/>
<path d="M91.4155 59.9336C85.7245 64.7156 80.2325 69.7286 74.9805 74.9796L233.739 256L74.9805 437.02C80.2325 442.272 85.7235 447.286 91.4155 452.066L287.481 256L91.4155 59.9336Z" fill="black"/>
<path d="M74.9805 74.9805C-24.9935 174.954 -24.9935 337.045 74.9805 437.02C116.294 395.707 156.026 355.974 256 256L74.9805 74.9805Z" fill="#D80027"/>
</g>
<defs>
<clipPath id="clip0_1118_6096">
<rect width="512" height="512" fill="white"/>
</clipPath>
</defs>
</svg>
