<svg width="512" height="512" viewBox="0 0 512 512" fill="none" xmlns="http://www.w3.org/2000/svg">
<g clip-path="url(#clip0_1118_6243)">
<path d="M256 512C397.385 512 512 397.385 512 256C512 114.615 397.385 0 256 0C114.615 0 0 114.615 0 256C0 397.385 114.615 512 256 512Z" fill="#0052B4"/>
<path d="M112.449 155.828L117.975 172.836H135.855L121.39 183.345L126.915 200.35L112.449 189.841L97.982 200.35L103.509 183.345L89.043 172.836H106.922L112.449 155.828Z" fill="#F0F0F0"/>
<path d="M168.1 139.133L173.626 156.14H191.506L177.041 166.649L182.566 183.654L168.1 173.145L153.634 183.654L159.16 166.649L144.695 156.14H162.575L168.1 139.133Z" fill="#F0F0F0"/>
<path d="M223.753 122.438L229.279 139.444H247.159L232.694 149.955L238.219 166.959L223.753 156.45L209.287 166.959L214.813 149.955L200.348 139.444H218.228L223.753 122.438Z" fill="#F0F0F0"/>
<path d="M399.551 155.828L394.025 172.836H376.145L390.611 183.345L385.085 200.35L399.551 189.841L414.018 200.35L408.491 183.345L422.957 172.836H405.077L399.551 155.828Z" fill="#F0F0F0"/>
<path d="M343.898 139.133L338.372 156.14H320.492L334.958 166.649L329.432 183.654L343.898 173.145L358.364 183.654L352.838 166.649L367.303 156.14H349.423L343.898 139.133Z" fill="#F0F0F0"/>
<path d="M288.248 122.438L282.722 139.444H264.842L279.307 149.955L273.782 166.959L288.248 156.45L302.714 166.959L297.188 149.955L311.653 139.444H293.773L288.248 122.438Z" fill="#F0F0F0"/>
<path d="M300.523 267.129L256.001 211.477L233.74 222.607V244.868L200.349 267.129H178.088V295.888C210.716 309.1 233.74 341.069 233.74 378.434H256.001V356.173L278.262 333.912L300.523 356.173L322.784 333.912V311.651L345.045 278.26L300.523 267.129Z" fill="#FFDA44"/>
</g>
<defs>
<clipPath id="clip0_1118_6243">
<rect width="512" height="512" fill="white"/>
</clipPath>
</defs>
</svg>
